<svg width="224" height="34" viewBox="0 0 224 34" fill="none" xmlns="http://www.w3.org/2000/svg">
<g clip-path="url(#clip0_76_2)">
<path d="M5.0414e-05 12.89C-0.00175685 12.6452 0.0450433 12.4025 0.137738 12.1759C0.230433 11.9493 0.367179 11.7433 0.54005 11.57C0.711381 11.3869 0.919081 11.2416 1.14984 11.1434C1.38059 11.0453 1.62931 10.9964 1.88005 11H9.00005C10.579 10.9799 12.1363 11.3692 13.5201 12.13C14.8609 12.859 16.0171 13.8852 16.9 15.13C17.7722 13.8829 18.9225 12.8559 20.26 12.13C21.6329 11.3784 23.1749 10.9894 24.74 11H31.81C32.0555 10.9963 32.2989 11.0442 32.5246 11.1407C32.7503 11.2371 32.9532 11.38 33.12 11.56C33.2948 11.732 33.4327 11.9377 33.5255 12.1646C33.6184 12.3915 33.6641 12.6349 33.66 12.88V27.18H30.23V14.91C30.2313 14.8491 30.2204 14.7886 30.1981 14.732C30.1758 14.6753 30.1425 14.6237 30.1 14.58C30.0614 14.5358 30.0137 14.5005 29.9603 14.4763C29.9068 14.4522 29.8487 14.4398 29.7901 14.44H25.15C24.2818 14.4372 23.4194 14.5826 22.6 14.87C21.8298 15.1322 21.117 15.5396 20.5 16.07C19.8952 16.6031 19.414 17.2617 19.09 18C18.7416 18.7691 18.5675 19.6057 18.58 20.45V27.24H15.1101V20.4C15.1168 19.5713 14.9391 18.7516 14.5901 18C14.2491 17.2808 13.7621 16.6406 13.1601 16.12C12.5453 15.5971 11.8405 15.1905 11.0801 14.92C10.2634 14.6366 9.40444 14.4945 8.54005 14.5H3.90005C3.84613 14.4915 3.79106 14.4939 3.73807 14.507C3.68508 14.5201 3.63524 14.5436 3.59146 14.5762C3.54769 14.6088 3.51086 14.6498 3.48314 14.6968C3.45542 14.7438 3.43737 14.7959 3.43005 14.85V27.19H5.0414e-05V12.89ZM41.2001 19.61C41.1987 19.9946 41.2741 20.3756 41.4218 20.7307C41.5696 21.0858 41.7867 21.4078 42.0605 21.6779C42.3344 21.948 42.6593 22.1607 43.0164 22.3036C43.3735 22.4465 43.7555 22.5167 44.14 22.51H54V26H44.14C42.8873 26.0018 41.6618 25.6336 40.6175 24.9416C39.5732 24.2495 38.7566 23.2645 38.2701 22.11C37.9313 21.3275 37.761 20.4826 37.7701 19.63V11H41.2001V19.61ZM56.4901 11H60V26.74C60.0014 27.5769 59.8375 28.4058 59.5178 29.1793C59.1982 29.9527 58.729 30.6554 58.1373 31.2472C57.5455 31.839 56.8427 32.3081 56.0693 32.6278C55.2959 32.9475 54.4669 33.1113 53.6301 33.11H38.8V29.67H53.59C53.9751 29.6795 54.358 29.6088 54.7144 29.4625C55.0707 29.3161 55.3927 29.0974 55.66 28.82C55.9322 28.5477 56.146 28.2228 56.2887 27.8653C56.4314 27.5077 56.4999 27.1249 56.4901 26.74V11ZM56.4901 11H60V26.74C60.0014 27.5769 59.8375 28.4058 59.5178 29.1793C59.1982 29.9527 58.729 30.6554 58.1373 31.2472C57.5455 31.839 56.8427 32.3081 56.0693 32.6278C55.2959 32.9475 54.4669 33.1113 53.6301 33.11H38.8V29.67H53.59C53.9751 29.6795 54.358 29.6088 54.7144 29.4625C55.0707 29.3161 55.3927 29.0974 55.66 28.82C55.9322 28.5477 56.146 28.2228 56.2887 27.8653C56.4314 27.5077 56.4999 27.1249 56.4901 26.74V11ZM92.3201 7.93C93.2146 7.91916 94.1011 8.09987 94.9201 8.46C95.7159 8.79888 96.439 9.28777 97.0501 9.9C97.6714 10.5184 98.1638 11.2541 98.4985 12.0644C98.8333 12.8746 99.0037 13.7433 99.0001 14.62V15.85C99.007 16.7422 98.8335 17.6266 98.4901 18.45C98.1582 19.2413 97.6721 19.9586 97.0601 20.56C96.4466 21.1739 95.7198 21.6629 94.9201 22C94.1014 22.3498 93.2203 22.5301 92.3301 22.53H82.4101V18.88H92.3001C92.7022 18.8792 93.1001 18.7976 93.4701 18.64C94.2107 18.3297 94.7998 17.7407 95.1101 17C95.2677 16.63 95.3493 16.2321 95.3501 15.83V14.62C95.3493 14.2179 95.2677 13.82 95.1101 13.45C94.7998 12.7093 94.2107 12.1203 93.4701 11.81C93.1001 11.6524 92.7022 11.5708 92.3001 11.57H80.3001C79.9967 11.5751 79.7071 11.698 79.4926 11.9125C79.278 12.1271 79.1552 12.4166 79.1501 12.72V28.33H75.5101V11.22C75.5089 10.7791 75.6009 10.3429 75.7801 9.94C76.029 9.34927 76.4461 8.84476 76.9795 8.48917C77.5129 8.13358 78.139 7.94261 78.7801 7.94L92.3201 7.93ZM102.36 17.38C102.358 16.1272 102.726 14.9018 103.419 13.8575C104.111 12.8132 105.096 11.9965 106.25 11.51C107.033 11.1713 107.877 11.0009 108.73 11.01H118V14.44H108.78C108.398 14.436 108.02 14.5075 107.666 14.6502C107.312 14.7929 106.989 15.0041 106.717 15.2717C106.445 15.5392 106.228 15.8579 106.079 16.2094C105.931 16.5609 105.853 16.9383 105.85 17.32V28.32H102.41L102.36 17.38ZM135.67 11C136.702 10.9957 137.724 11.2069 138.67 11.62C140.533 12.4117 142.019 13.8909 142.82 15.75C143.227 16.6977 143.434 17.7188 143.43 18.75V20.51C143.437 21.5414 143.229 22.563 142.82 23.51C142.017 25.37 140.532 26.8516 138.67 27.65C137.722 28.0553 136.701 28.2628 135.67 28.26H127C125.969 28.2665 124.947 28.0588 124 27.65C122.141 26.8512 120.659 25.3693 119.86 23.51C119.453 22.5622 119.242 21.5416 119.24 20.51V18.79C119.244 17.7586 119.455 16.7385 119.86 15.79C120.656 13.9243 122.138 12.4353 124 11.63C124.945 11.2132 125.967 11.0019 127 11.01L135.67 11ZM140 18.79C140.007 18.2133 139.894 17.6414 139.67 17.11C139.449 16.5929 139.134 16.1214 138.74 15.72C138.347 15.3181 137.878 14.9985 137.36 14.78C136.822 14.5524 136.244 14.4367 135.66 14.44H127C126.145 14.4438 125.31 14.6989 124.599 15.1736C123.887 15.6484 123.331 16.3217 123 17.11C122.773 17.6408 122.657 18.2126 122.66 18.79V20.55C122.658 21.1241 122.774 21.6925 123 22.22C123.442 23.2716 124.279 24.108 125.33 24.55C125.858 24.7765 126.426 24.8923 127 24.89H135.63C136.214 24.8922 136.792 24.7765 137.33 24.55C137.85 24.3351 138.32 24.0151 138.71 23.61C139.101 23.2082 139.413 22.7367 139.63 22.22C139.857 21.6925 139.972 21.1241 139.97 20.55L140 18.79ZM147.76 12.18H151.22V26.74C151.227 27.5875 151.074 28.4288 150.77 29.22C150.476 29.9629 150.042 30.642 149.49 31.22C148.946 31.7976 148.293 32.263 147.57 32.59C146.809 32.9295 145.983 33.1001 145.15 33.09H141.25V29.68H145.15C145.514 29.6961 145.877 29.6278 146.21 29.4803C146.543 29.3328 146.837 29.1103 147.07 28.83C147.538 28.2356 147.782 27.496 147.76 26.74V12.18ZM147.41 3.46V0H151.49V3.46H147.41ZM161.82 28.32C160.967 28.3315 160.122 28.161 159.34 27.82C157.828 27.1683 156.629 25.952 156 24.43C155.659 23.6483 155.489 22.8028 155.5 21.95V17.38C155.489 16.5272 155.659 15.6817 156 14.9C156.641 13.3686 157.859 12.1509 159.39 11.51C160.172 11.169 161.017 10.9985 161.87 11.01H173.46C173.957 11.0073 174.45 11.1033 174.91 11.2923C175.37 11.4814 175.787 11.7597 176.139 12.1112C176.49 12.4628 176.769 12.8805 176.958 13.3403C177.147 13.8001 177.243 14.2929 177.24 14.79V17.49C177.244 17.9838 177.151 18.4735 176.965 18.9312C176.78 19.3889 176.506 19.8056 176.16 20.1575C175.814 20.5095 175.401 20.7897 174.947 20.9823C174.492 21.1749 174.004 21.2761 173.51 21.28H161.29V17.84H172.82C172.938 17.8454 173.056 17.8274 173.168 17.787C173.279 17.7467 173.381 17.6848 173.468 17.605C173.556 17.5251 173.626 17.4288 173.676 17.3215C173.727 17.2143 173.755 17.0982 173.76 16.98V15.38C173.764 15.1343 173.671 14.897 173.5 14.72C173.414 14.627 173.308 14.5539 173.191 14.5056C173.073 14.4572 172.947 14.4349 172.82 14.44H161.82C161.438 14.436 161.06 14.5075 160.706 14.6502C160.352 14.7929 160.029 15.0041 159.757 15.2717C159.485 15.5392 159.268 15.8579 159.119 16.2094C158.971 16.5609 158.893 16.9383 158.89 17.32V22C158.885 22.3817 158.955 22.7606 159.096 23.1152C159.238 23.4697 159.448 23.7928 159.715 24.0659C159.981 24.3391 160.299 24.5569 160.65 24.7069C161.001 24.8569 161.378 24.9361 161.76 24.94H177.2V28.37L161.82 28.32ZM186.79 28.32C185.937 28.3315 185.092 28.161 184.31 27.82C182.781 27.1755 181.565 25.9589 180.92 24.43C180.579 23.6483 180.409 22.8028 180.42 21.95V17.38C180.409 16.5272 180.579 15.6817 180.92 14.9C181.565 13.3711 182.781 12.1545 184.31 11.51C185.092 11.169 185.937 10.9985 186.79 11.01H201.58V14.44H186.79C186.408 14.436 186.029 14.5074 185.674 14.65C185.32 14.7926 184.997 15.0036 184.724 15.2711C184.451 15.5385 184.233 15.8571 184.083 16.2087C183.933 16.5602 183.854 16.9378 183.85 17.32V22C183.845 22.771 184.145 23.5128 184.684 24.0636C185.224 24.6144 185.959 24.9295 186.73 24.94H202.17V28.37L186.79 28.32ZM204.22 11H207.39V7.93H210.82V20.84C210.819 21.3807 210.931 21.9156 211.15 22.41C211.453 23.1468 211.968 23.7764 212.631 24.2183C213.294 24.6601 214.074 24.894 214.87 24.89H223.5V28.32H214.35C213.422 28.3324 212.502 28.1484 211.65 27.78C210.387 27.2426 209.309 26.3456 208.552 25.2005C207.794 24.0554 207.39 22.7129 207.39 21.34V14.44H204.22V11ZM221 11V14.43H213.19V11H221Z" fill="#0A6847"/>
<path d="M35.51 29.67H0C-3.84756e-06 30.5806 0.361051 31.4541 1.00401 32.0989C1.64698 32.7438 2.51939 33.1073 3.43 33.11H35.51V29.67ZM56.49 3.46C56.49 3.00138 56.5811 2.54734 56.7581 2.12426C56.9351 1.70118 57.1944 1.31751 57.521 0.995557C57.8476 0.673604 58.235 0.419793 58.6606 0.248881C59.0861 0.0779695 59.5414 -0.00663223 60 -4.89247e-06H143.52V3.46H56.49Z" fill="#18D190"/>
<path d="M60 8.21999H56.49V3.45999C56.4913 3.00176 56.5833 2.54832 56.7608 2.12585C56.9383 1.70338 57.1976 1.32024 57.524 0.998557C57.8503 0.676871 58.2371 0.423006 58.6621 0.251615C59.0871 0.0802242 59.5418 -0.00529744 60 -1.34087e-05V8.21999Z" fill="#18D190"/>
</g>
<defs>
<clipPath id="clip0_76_2">
<rect width="223.5" height="33.11" fill="white"/>
</clipPath>
</defs>
</svg>
